<svg xmlns="http://www.w3.org/2000/svg" xmlns:xlink="http://www.w3.org/1999/xlink" width="70" zoomAndPan="magnify" viewBox="0 0 52.5 52.499999" height="70" preserveAspectRatio="xMidYMid meet" version="1.0"><defs><g/><clipPath id="74d7167a63"><path d="M 10.5 8.511719 L 42 8.511719 L 42 25.011719 L 10.5 25.011719 Z M 10.5 8.511719 " clip-rule="nonzero"/></clipPath><clipPath id="496abcb541"><path d="M 10.5 24.847656 L 42 24.847656 L 42 41.347656 L 10.5 41.347656 Z M 10.5 24.847656 " clip-rule="nonzero"/></clipPath><clipPath id="c15f58833c"><path d="M 0 20.507812 L 52.003906 20.507812 L 52.003906 29.355469 L 0 29.355469 Z M 0 20.507812 " clip-rule="nonzero"/></clipPath><clipPath id="95addbeb49"><path d="M 2.25 20.507812 L 50.25 20.507812 C 50.847656 20.507812 51.417969 20.742188 51.839844 21.164062 C 52.261719 21.585938 52.5 22.160156 52.5 22.757812 L 52.5 27.105469 C 52.5 27.703125 52.261719 28.273438 51.839844 28.695312 C 51.417969 29.117188 50.847656 29.355469 50.25 29.355469 L 2.25 29.355469 C 1.652344 29.355469 1.082031 29.117188 0.660156 28.695312 C 0.238281 28.273438 0 27.703125 0 27.105469 L 0 22.757812 C 0 22.160156 0.238281 21.585938 0.660156 21.164062 C 1.082031 20.742188 1.652344 20.507812 2.25 20.507812 " clip-rule="nonzero"/></clipPath><clipPath id="db346445a2"><path d="M 0 20.507812 L 52.003906 20.507812 L 52.003906 29.507812 L 0 29.507812 Z M 0 20.507812 " clip-rule="nonzero"/></clipPath><clipPath id="20edee09cb"><path d="M 2.257812 20.507812 L 50.242188 20.507812 C 50.839844 20.507812 51.414062 20.746094 51.835938 21.175781 C 52.257812 21.605469 52.492188 22.1875 52.492188 22.792969 L 52.492188 27.21875 C 52.492188 27.824219 52.257812 28.40625 51.835938 28.835938 C 51.414062 29.265625 50.839844 29.507812 50.242188 29.507812 L 2.257812 29.507812 C 1.660156 29.507812 1.085938 29.265625 0.664062 28.835938 C 0.242188 28.40625 0.0078125 27.824219 0.0078125 27.21875 L 0.0078125 22.792969 C 0.0078125 22.1875 0.242188 21.605469 0.664062 21.175781 C 1.085938 20.746094 1.660156 20.507812 2.257812 20.507812 " clip-rule="nonzero"/></clipPath><clipPath id="b42e9d22b6"><path d="M 43.585938 21.703125 L 50.910156 21.703125 L 50.910156 28.453125 L 43.585938 28.453125 Z M 43.585938 21.703125 " clip-rule="nonzero"/></clipPath><clipPath id="0a74ead7f0"><path d="M 1.410156 21.703125 L 8.910156 21.703125 L 8.910156 28.453125 L 1.410156 28.453125 Z M 1.410156 21.703125 " clip-rule="nonzero"/></clipPath><clipPath id="79a572f354"><path d="M 0 4.125 L 52.003906 4.125 L 52.003906 20.625 L 0 20.625 Z M 0 4.125 " clip-rule="nonzero"/></clipPath><clipPath id="34c482738f"><path d="M 0 29.355469 L 52.003906 29.355469 L 52.003906 45.855469 L 0 45.855469 Z M 0 29.355469 " clip-rule="nonzero"/></clipPath></defs><g clip-path="url(#74d7167a63)"><path fill="#e30016" d="M 41.355469 25.015625 L 11.148438 25.015625 C 10.964844 25.015625 10.808594 24.953125 10.675781 24.820312 C 10.546875 24.691406 10.480469 24.535156 10.484375 24.347656 C 10.484375 23.828125 10.507812 23.3125 10.558594 22.796875 C 10.609375 22.28125 10.6875 21.765625 10.789062 21.257812 C 10.886719 20.75 11.015625 20.246094 11.164062 19.75 C 11.3125 19.253906 11.488281 18.765625 11.683594 18.285156 C 11.882812 17.808594 12.105469 17.339844 12.347656 16.882812 C 12.589844 16.421875 12.855469 15.980469 13.144531 15.546875 C 13.429688 15.117188 13.738281 14.699219 14.0625 14.300781 C 14.390625 13.898438 14.738281 13.515625 15.101562 13.148438 C 15.46875 12.78125 15.851562 12.433594 16.25 12.105469 C 16.648438 11.773438 17.0625 11.464844 17.492188 11.179688 C 17.921875 10.890625 18.363281 10.625 18.820312 10.378906 C 19.273438 10.132812 19.742188 9.914062 20.21875 9.714844 C 20.695312 9.515625 21.179688 9.339844 21.675781 9.191406 C 22.167969 9.039062 22.667969 8.914062 23.175781 8.8125 C 23.679688 8.710938 24.191406 8.636719 24.703125 8.585938 C 25.21875 8.535156 25.734375 8.507812 26.25 8.507812 C 26.765625 8.507812 27.28125 8.535156 27.796875 8.585938 C 28.308594 8.636719 28.820312 8.710938 29.324219 8.8125 C 29.832031 8.914062 30.332031 9.039062 30.824219 9.191406 C 31.320312 9.339844 31.804688 9.515625 32.28125 9.714844 C 32.757812 9.914062 33.226562 10.132812 33.679688 10.378906 C 34.136719 10.625 34.578125 10.890625 35.007812 11.179688 C 35.4375 11.464844 35.851562 11.773438 36.25 12.105469 C 36.648438 12.433594 37.03125 12.78125 37.398438 13.148438 C 37.761719 13.515625 38.109375 13.898438 38.4375 14.300781 C 38.761719 14.699219 39.070312 15.117188 39.355469 15.546875 C 39.644531 15.980469 39.910156 16.421875 40.152344 16.882812 C 40.394531 17.339844 40.617188 17.808594 40.816406 18.285156 C 41.011719 18.765625 41.1875 19.253906 41.335938 19.75 C 41.484375 20.246094 41.613281 20.75 41.710938 21.257812 C 41.8125 21.765625 41.890625 22.28125 41.941406 22.796875 C 41.992188 23.3125 42.015625 23.828125 42.015625 24.347656 C 42.015625 24.53125 41.953125 24.691406 41.824219 24.820312 C 41.695312 24.949219 41.539062 25.015625 41.355469 25.015625 Z M 41.355469 25.015625 " fill-opacity="1" fill-rule="nonzero"/></g><g clip-path="url(#496abcb541)"><path fill="#000000" d="M 11.144531 24.847656 L 41.351562 24.847656 C 41.535156 24.84375 41.691406 24.910156 41.824219 25.039062 C 41.953125 25.167969 42.019531 25.328125 42.015625 25.511719 C 42.015625 26.03125 41.992188 26.546875 41.941406 27.066406 C 41.890625 27.582031 41.8125 28.09375 41.710938 28.601562 C 41.613281 29.109375 41.484375 29.613281 41.335938 30.109375 C 41.1875 30.605469 41.011719 31.09375 40.816406 31.574219 C 40.617188 32.054688 40.394531 32.523438 40.152344 32.980469 C 39.910156 33.4375 39.644531 33.882812 39.355469 34.3125 C 39.070312 34.742188 38.761719 35.160156 38.4375 35.5625 C 38.109375 35.960938 37.761719 36.347656 37.398438 36.710938 C 37.03125 37.078125 36.648438 37.425781 36.25 37.757812 C 35.851562 38.085938 35.4375 38.394531 35.007812 38.683594 C 34.578125 38.96875 34.136719 39.238281 33.679688 39.480469 C 33.226562 39.726562 32.757812 39.949219 32.28125 40.144531 C 31.804688 40.34375 31.320312 40.519531 30.824219 40.667969 C 30.332031 40.820312 29.832031 40.945312 29.324219 41.046875 C 28.820312 41.148438 28.308594 41.222656 27.796875 41.273438 C 27.28125 41.328125 26.765625 41.351562 26.25 41.351562 C 25.734375 41.351562 25.21875 41.328125 24.703125 41.273438 C 24.191406 41.222656 23.679688 41.148438 23.175781 41.046875 C 22.667969 40.945312 22.167969 40.820312 21.675781 40.667969 C 21.179688 40.519531 20.695312 40.34375 20.21875 40.144531 C 19.742188 39.949219 19.273438 39.726562 18.820312 39.480469 C 18.363281 39.238281 17.921875 38.96875 17.492188 38.683594 C 17.0625 38.394531 16.648438 38.085938 16.25 37.757812 C 15.851562 37.425781 15.46875 37.078125 15.101562 36.710938 C 14.738281 36.347656 14.390625 35.960938 14.0625 35.5625 C 13.738281 35.160156 13.429688 34.742188 13.144531 34.3125 C 12.855469 33.882812 12.589844 33.4375 12.347656 32.980469 C 12.105469 32.523438 11.882812 32.054688 11.683594 31.574219 C 11.488281 31.09375 11.3125 30.605469 11.164062 30.109375 C 11.015625 29.613281 10.886719 29.109375 10.789062 28.601562 C 10.6875 28.09375 10.609375 27.582031 10.558594 27.066406 C 10.507812 26.546875 10.484375 26.03125 10.484375 25.511719 C 10.484375 25.328125 10.546875 25.171875 10.675781 25.039062 C 10.804688 24.910156 10.960938 24.84375 11.144531 24.847656 Z M 11.144531 24.847656 " fill-opacity="1" fill-rule="nonzero"/></g><g clip-path="url(#c15f58833c)"><g clip-path="url(#95addbeb49)"><path fill="#ffffff" d="M 0 20.507812 L 52.5 20.507812 L 52.5 29.355469 L 0 29.355469 Z M 0 20.507812 " fill-opacity="1" fill-rule="nonzero"/></g></g><g clip-path="url(#db346445a2)"><g clip-path="url(#20edee09cb)"><path stroke-linecap="butt" transform="matrix(0.75, 0, 0, 0.762914, 0.00695415, 20.505936)" fill="none" stroke-linejoin="miter" d="M 3.001145 0.00246018 L 66.980317 0.00246018 C 67.777193 0.00246018 68.542818 0.314791 69.105318 0.87801 C 69.667818 1.441229 69.980318 2.204134 69.980318 2.997761 L 69.980318 8.798916 C 69.980318 9.592542 69.667818 10.355448 69.105318 10.918667 C 68.542818 11.481886 67.777193 11.799337 66.980317 11.799337 L 3.001145 11.799337 C 2.20427 11.799337 1.438645 11.481886 0.876145 10.918667 C 0.313645 10.355448 0.00114447 9.592542 0.00114447 8.798916 L 0.00114447 2.997761 C 0.00114447 2.204134 0.313645 1.441229 0.876145 0.87801 C 1.438645 0.314791 2.20427 0.00246018 3.001145 0.00246018 " stroke="#b0b2b3" stroke-width="3" stroke-opacity="1" stroke-miterlimit="4"/></g></g><g fill="#e30016" fill-opacity="1"><g transform="translate(12.498198, 26.739001)"><g><path d="M 2.125 -2.359375 L 3.796875 -2.359375 L 3.796875 -0.1875 C 3.523438 -0.09375 3.269531 -0.03125 3.03125 0 C 2.789062 0.0390625 2.546875 0.0625 2.296875 0.0625 C 1.660156 0.0625 1.175781 -0.125 0.84375 -0.5 C 0.507812 -0.875 0.34375 -1.410156 0.34375 -2.109375 C 0.34375 -2.785156 0.535156 -3.3125 0.921875 -3.6875 C 1.304688 -4.070312 1.847656 -4.265625 2.546875 -4.265625 C 2.972656 -4.265625 3.382812 -4.175781 3.78125 -4 L 3.484375 -3.296875 C 3.179688 -3.453125 2.863281 -3.53125 2.53125 -3.53125 C 2.144531 -3.53125 1.835938 -3.398438 1.609375 -3.140625 C 1.378906 -2.878906 1.265625 -2.53125 1.265625 -2.09375 C 1.265625 -1.632812 1.359375 -1.285156 1.546875 -1.046875 C 1.734375 -0.804688 2.003906 -0.6875 2.359375 -0.6875 C 2.546875 -0.6875 2.734375 -0.703125 2.921875 -0.734375 L 2.921875 -1.625 L 2.125 -1.625 Z M 2.125 -2.359375 "/></g></g></g><g fill="#28232a" fill-opacity="1"><g transform="translate(16.637638, 26.739001)"><g><path d="M 0.171875 -1.21875 L 0.171875 -1.9375 L 1.71875 -1.9375 L 1.71875 -1.21875 Z M 0.171875 -1.21875 "/></g></g></g><g fill="#28232a" fill-opacity="1"><g transform="translate(18.411926, 26.739001)"><g><path d="M 2.953125 0 L 0.53125 0 L 0.53125 -4.203125 L 2.953125 -4.203125 L 2.953125 -3.46875 L 1.421875 -3.46875 L 1.421875 -2.546875 L 2.84375 -2.546875 L 2.84375 -1.828125 L 1.421875 -1.828125 L 1.421875 -0.734375 L 2.953125 -0.734375 Z M 2.953125 0 "/></g></g></g><g fill="#28232a" fill-opacity="1"><g transform="translate(21.587281, 26.739001)"><g><path d="M 4.265625 0 L 3.125 0 L 1.296875 -3.1875 L 1.265625 -3.1875 C 1.304688 -2.625 1.328125 -2.222656 1.328125 -1.984375 L 1.328125 0 L 0.53125 0 L 0.53125 -4.203125 L 1.65625 -4.203125 L 3.484375 -1.0625 L 3.5 -1.0625 C 3.46875 -1.601562 3.453125 -1.988281 3.453125 -2.21875 L 3.453125 -4.203125 L 4.265625 -4.203125 Z M 4.265625 0 "/></g></g></g><g fill="#28232a" fill-opacity="1"><g transform="translate(26.249833, 26.739001)"><g><path d="M 2.125 -2.359375 L 3.796875 -2.359375 L 3.796875 -0.1875 C 3.523438 -0.09375 3.269531 -0.03125 3.03125 0 C 2.789062 0.0390625 2.546875 0.0625 2.296875 0.0625 C 1.660156 0.0625 1.175781 -0.125 0.84375 -0.5 C 0.507812 -0.875 0.34375 -1.410156 0.34375 -2.109375 C 0.34375 -2.785156 0.535156 -3.3125 0.921875 -3.6875 C 1.304688 -4.070312 1.847656 -4.265625 2.546875 -4.265625 C 2.972656 -4.265625 3.382812 -4.175781 3.78125 -4 L 3.484375 -3.296875 C 3.179688 -3.453125 2.863281 -3.53125 2.53125 -3.53125 C 2.144531 -3.53125 1.835938 -3.398438 1.609375 -3.140625 C 1.378906 -2.878906 1.265625 -2.53125 1.265625 -2.09375 C 1.265625 -1.632812 1.359375 -1.285156 1.546875 -1.046875 C 1.734375 -0.804688 2.003906 -0.6875 2.359375 -0.6875 C 2.546875 -0.6875 2.734375 -0.703125 2.921875 -0.734375 L 2.921875 -1.625 L 2.125 -1.625 Z M 2.125 -2.359375 "/></g></g></g><g fill="#28232a" fill-opacity="1"><g transform="translate(30.389856, 26.739001)"><g><path d="M 0.53125 0 L 0.53125 -4.203125 L 1.421875 -4.203125 L 1.421875 0 Z M 0.53125 0 "/></g></g></g><g fill="#28232a" fill-opacity="1"><g transform="translate(32.218691, 26.739001)"><g><path d="M 4.265625 0 L 3.125 0 L 1.296875 -3.1875 L 1.265625 -3.1875 C 1.304688 -2.625 1.328125 -2.222656 1.328125 -1.984375 L 1.328125 0 L 0.53125 0 L 0.53125 -4.203125 L 1.65625 -4.203125 L 3.484375 -1.0625 L 3.5 -1.0625 C 3.46875 -1.601562 3.453125 -1.988281 3.453125 -2.21875 L 3.453125 -4.203125 L 4.265625 -4.203125 Z M 4.265625 0 "/></g></g></g><g fill="#28232a" fill-opacity="1"><g transform="translate(36.881243, 26.739001)"><g><path d="M 2.953125 0 L 0.53125 0 L 0.53125 -4.203125 L 2.953125 -4.203125 L 2.953125 -3.46875 L 1.421875 -3.46875 L 1.421875 -2.546875 L 2.84375 -2.546875 L 2.84375 -1.828125 L 1.421875 -1.828125 L 1.421875 -0.734375 L 2.953125 -0.734375 Z M 2.953125 0 "/></g></g></g><g fill="#ffffff" fill-opacity="1"><g transform="translate(40.052652, 26.739001)"><g/></g></g><g clip-path="url(#b42e9d22b6)"><path fill="#000000" d="M 43.804688 22.90625 C 43.6875 22.90625 43.589844 22.800781 43.589844 22.675781 C 43.589844 22.546875 43.6875 22.441406 43.804688 22.441406 C 43.886719 22.441406 43.957031 22.492188 43.996094 22.5625 L 47.128906 22.5625 C 47.132812 22.558594 47.132812 22.554688 47.136719 22.550781 L 47.230469 22.113281 C 47.253906 21.996094 47.316406 21.894531 47.402344 21.820312 C 47.492188 21.746094 47.601562 21.703125 47.710938 21.703125 L 48.1875 21.703125 C 48.300781 21.703125 48.40625 21.746094 48.496094 21.820312 C 48.582031 21.894531 48.644531 21.996094 48.667969 22.113281 L 48.765625 22.550781 C 48.765625 22.558594 48.769531 22.566406 48.777344 22.570312 C 48.855469 22.597656 48.933594 22.632812 49.007812 22.671875 C 49.015625 22.675781 49.023438 22.671875 49.03125 22.667969 L 49.386719 22.433594 C 49.480469 22.371094 49.59375 22.34375 49.703125 22.355469 C 49.8125 22.371094 49.917969 22.421875 49.996094 22.507812 L 50.332031 22.867188 C 50.414062 22.953125 50.460938 23.0625 50.476562 23.183594 C 50.488281 23.300781 50.460938 23.421875 50.402344 23.523438 L 50.183594 23.902344 C 50.179688 23.910156 50.179688 23.917969 50.183594 23.929688 C 50.21875 24.007812 50.25 24.089844 50.277344 24.171875 C 50.28125 24.183594 50.285156 24.1875 50.292969 24.191406 L 50.703125 24.292969 C 50.808594 24.320312 50.90625 24.386719 50.976562 24.476562 C 51.042969 24.570312 51.082031 24.6875 51.082031 24.808594 L 51.082031 25.363281 C 51.082031 25.453125 51.054688 25.542969 51 25.613281 C 50.949219 25.683594 50.875 25.734375 50.792969 25.753906 L 50.367188 25.863281 C 50.3125 25.875 50.265625 25.917969 50.25 25.976562 C 50.222656 26.058594 50.191406 26.136719 50.15625 26.21875 C 50.128906 26.273438 50.132812 26.335938 50.164062 26.386719 L 50.394531 26.785156 C 50.4375 26.863281 50.457031 26.953125 50.449219 27.042969 C 50.4375 27.132812 50.402344 27.21875 50.339844 27.28125 L 49.988281 27.660156 C 49.929688 27.722656 49.851562 27.765625 49.765625 27.773438 C 49.683594 27.785156 49.597656 27.765625 49.527344 27.71875 L 49.152344 27.46875 C 49.105469 27.4375 49.046875 27.433594 48.996094 27.460938 C 48.921875 27.496094 48.847656 27.53125 48.769531 27.558594 C 48.714844 27.582031 48.675781 27.628906 48.664062 27.6875 L 48.5625 28.144531 C 48.542969 28.230469 48.496094 28.3125 48.433594 28.367188 C 48.367188 28.421875 48.285156 28.453125 48.199219 28.453125 L 47.699219 28.453125 C 47.617188 28.453125 47.535156 28.421875 47.46875 28.367188 C 47.402344 28.3125 47.355469 28.230469 47.335938 28.144531 L 47.234375 27.6875 C 47.222656 27.628906 47.183594 27.582031 47.128906 27.558594 C 47.054688 27.53125 46.976562 27.496094 46.902344 27.460938 C 46.851562 27.433594 46.792969 27.4375 46.746094 27.46875 L 46.375 27.71875 C 46.300781 27.765625 46.214844 27.785156 46.132812 27.773438 C 46.050781 27.765625 45.96875 27.722656 45.910156 27.660156 L 45.558594 27.28125 C 45.5 27.21875 45.460938 27.132812 45.449219 27.042969 C 45.441406 26.953125 45.460938 26.863281 45.503906 26.785156 L 45.636719 26.558594 L 44.121094 26.558594 C 44.085938 26.632812 44.015625 26.679688 43.933594 26.679688 C 43.8125 26.679688 43.71875 26.578125 43.71875 26.449219 C 43.71875 26.320312 43.8125 26.214844 43.933594 26.214844 C 44.015625 26.214844 44.085938 26.265625 44.121094 26.335938 L 45.828125 26.335938 C 45.886719 26.335938 45.933594 26.386719 45.933594 26.449219 C 45.933594 26.480469 45.921875 26.507812 45.898438 26.53125 L 45.683594 26.90625 C 45.640625 26.976562 45.652344 27.066406 45.707031 27.121094 L 46.058594 27.5 C 46.113281 27.558594 46.199219 27.570312 46.261719 27.527344 L 46.632812 27.277344 C 46.742188 27.207031 46.878906 27.199219 46.992188 27.257812 C 47.0625 27.289062 47.128906 27.320312 47.199219 27.347656 C 47.320312 27.394531 47.410156 27.503906 47.441406 27.636719 L 47.539062 28.09375 C 47.558594 28.171875 47.625 28.230469 47.699219 28.230469 L 48.199219 28.230469 C 48.277344 28.230469 48.34375 28.171875 48.359375 28.09375 L 48.460938 27.636719 C 48.488281 27.503906 48.578125 27.394531 48.699219 27.347656 C 48.769531 27.320312 48.839844 27.289062 48.90625 27.257812 C 49.019531 27.199219 49.15625 27.207031 49.265625 27.277344 L 49.636719 27.527344 C 49.703125 27.570312 49.785156 27.558594 49.839844 27.5 L 50.191406 27.121094 C 50.246094 27.066406 50.257812 26.976562 50.214844 26.90625 L 49.984375 26.503906 C 49.917969 26.390625 49.910156 26.246094 49.964844 26.121094 C 49.996094 26.050781 50.027344 25.972656 50.050781 25.898438 C 50.09375 25.769531 50.195312 25.671875 50.320312 25.644531 L 50.746094 25.535156 C 50.820312 25.515625 50.871094 25.445312 50.871094 25.363281 L 50.871094 25.210938 L 50.839844 25.210938 L 50.871094 25.070312 C 50.871094 25.066406 50.871094 25.066406 50.871094 25.0625 L 50.871094 24.808594 C 50.871094 24.738281 50.851562 24.671875 50.8125 24.617188 C 50.773438 24.5625 50.714844 24.527344 50.652344 24.511719 L 50.246094 24.410156 C 50.167969 24.390625 50.105469 24.328125 50.078125 24.25 C 50.054688 24.171875 50.023438 24.097656 49.992188 24.023438 C 49.957031 23.945312 49.960938 23.859375 50.003906 23.785156 L 50.226562 23.402344 C 50.257812 23.34375 50.273438 23.277344 50.265625 23.207031 C 50.257812 23.140625 50.230469 23.078125 50.183594 23.027344 L 49.847656 22.667969 C 49.804688 22.617188 49.742188 22.585938 49.679688 22.578125 C 49.617188 22.570312 49.550781 22.585938 49.496094 22.621094 L 49.140625 22.859375 C 49.074219 22.90625 48.992188 22.910156 48.917969 22.875 C 48.851562 22.839844 48.78125 22.808594 48.707031 22.78125 C 48.632812 22.75 48.578125 22.683594 48.558594 22.601562 L 48.464844 22.164062 C 48.449219 22.097656 48.414062 22.039062 48.363281 21.996094 C 48.316406 21.953125 48.253906 21.929688 48.1875 21.929688 L 47.710938 21.929688 C 47.648438 21.929688 47.585938 21.953125 47.535156 21.996094 C 47.484375 22.039062 47.449219 22.097656 47.433594 22.164062 L 47.339844 22.601562 C 47.320312 22.683594 47.265625 22.75 47.195312 22.777344 C 47.183594 22.785156 47.167969 22.785156 47.15625 22.785156 L 43.996094 22.785156 C 43.957031 22.859375 43.886719 22.90625 43.804688 22.90625 Z M 49.457031 25.148438 C 49.457031 26.039062 48.78125 26.761719 47.949219 26.761719 C 47.117188 26.761719 46.441406 26.039062 46.441406 25.148438 C 46.441406 25.085938 46.394531 25.035156 46.335938 25.035156 L 44.453125 25.035156 C 44.417969 24.964844 44.347656 24.914062 44.265625 24.914062 C 44.144531 24.914062 44.046875 25.019531 44.046875 25.148438 C 44.046875 25.273438 44.144531 25.378906 44.265625 25.378906 C 44.347656 25.378906 44.417969 25.332031 44.453125 25.257812 L 46.234375 25.257812 C 46.246094 25.46875 46.289062 25.671875 46.367188 25.863281 C 46.453125 26.082031 46.578125 26.28125 46.734375 26.449219 C 46.894531 26.617188 47.078125 26.75 47.28125 26.84375 C 47.492188 26.941406 47.71875 26.988281 47.949219 26.988281 C 48.179688 26.988281 48.40625 26.941406 48.617188 26.84375 C 48.824219 26.75 49.007812 26.617188 49.164062 26.449219 C 49.320312 26.28125 49.445312 26.082031 49.53125 25.863281 C 49.621094 25.636719 49.667969 25.394531 49.667969 25.148438 C 49.667969 24.898438 49.621094 24.65625 49.53125 24.429688 C 49.445312 24.210938 49.320312 24.015625 49.164062 23.84375 C 49.007812 23.675781 48.824219 23.542969 48.617188 23.449219 C 48.40625 23.355469 48.179688 23.304688 47.949219 23.304688 C 47.714844 23.304688 47.484375 23.355469 47.269531 23.453125 C 47.082031 23.542969 46.910156 23.664062 46.757812 23.820312 L 45.097656 23.820312 C 45.0625 23.746094 44.992188 23.699219 44.910156 23.699219 C 44.789062 23.699219 44.691406 23.804688 44.691406 23.929688 C 44.691406 24.058594 44.789062 24.164062 44.910156 24.164062 C 44.992188 24.164062 45.0625 24.117188 45.097656 24.042969 L 46.804688 24.042969 C 46.839844 24.042969 46.871094 24.027344 46.890625 23.996094 C 47.171875 23.695312 47.550781 23.53125 47.949219 23.53125 C 48.78125 23.53125 49.457031 24.253906 49.457031 25.148438 " fill-opacity="1" fill-rule="nonzero"/></g><g clip-path="url(#0a74ead7f0)"><path fill="#000000" d="M 8.691406 22.90625 C 8.808594 22.90625 8.90625 22.800781 8.90625 22.675781 C 8.90625 22.546875 8.808594 22.441406 8.691406 22.441406 C 8.609375 22.441406 8.539062 22.492188 8.5 22.5625 L 5.367188 22.5625 C 5.363281 22.558594 5.363281 22.554688 5.363281 22.550781 L 5.265625 22.113281 C 5.242188 21.996094 5.179688 21.894531 5.09375 21.820312 C 5.003906 21.746094 4.898438 21.703125 4.785156 21.703125 L 4.308594 21.703125 C 4.199219 21.703125 4.089844 21.746094 4 21.820312 C 3.914062 21.894531 3.851562 21.996094 3.828125 22.113281 L 3.734375 22.550781 C 3.730469 22.558594 3.726562 22.566406 3.71875 22.570312 C 3.640625 22.597656 3.5625 22.632812 3.488281 22.671875 C 3.480469 22.675781 3.472656 22.671875 3.464844 22.667969 L 3.109375 22.433594 C 3.015625 22.371094 2.902344 22.34375 2.792969 22.355469 C 2.683594 22.371094 2.578125 22.421875 2.5 22.507812 L 2.164062 22.867188 C 2.085938 22.953125 2.035156 23.0625 2.023438 23.183594 C 2.007812 23.300781 2.035156 23.421875 2.09375 23.523438 L 2.3125 23.902344 C 2.316406 23.910156 2.320312 23.917969 2.316406 23.929688 C 2.28125 24.007812 2.246094 24.089844 2.21875 24.171875 C 2.21875 24.183594 2.210938 24.1875 2.203125 24.191406 L 1.796875 24.292969 C 1.6875 24.320312 1.589844 24.386719 1.519531 24.476562 C 1.453125 24.570312 1.414062 24.6875 1.414062 24.808594 L 1.414062 25.363281 C 1.414062 25.453125 1.441406 25.542969 1.496094 25.613281 C 1.546875 25.683594 1.621094 25.734375 1.703125 25.753906 L 2.128906 25.863281 C 2.183594 25.875 2.230469 25.917969 2.25 25.976562 C 2.277344 26.058594 2.308594 26.136719 2.34375 26.21875 C 2.367188 26.273438 2.363281 26.335938 2.332031 26.386719 L 2.101562 26.785156 C 2.058594 26.863281 2.039062 26.953125 2.046875 27.042969 C 2.058594 27.132812 2.09375 27.21875 2.15625 27.28125 L 2.507812 27.660156 C 2.566406 27.722656 2.644531 27.765625 2.730469 27.773438 C 2.8125 27.785156 2.898438 27.765625 2.972656 27.71875 L 3.34375 27.46875 C 3.390625 27.4375 3.449219 27.433594 3.5 27.460938 C 3.574219 27.496094 3.652344 27.53125 3.726562 27.558594 C 3.78125 27.582031 3.820312 27.628906 3.832031 27.6875 L 3.933594 28.144531 C 3.953125 28.230469 4 28.3125 4.066406 28.367188 C 4.128906 28.421875 4.214844 28.453125 4.296875 28.453125 L 4.796875 28.453125 C 4.878906 28.453125 4.964844 28.421875 5.03125 28.367188 C 5.09375 28.3125 5.140625 28.230469 5.160156 28.144531 L 5.261719 27.6875 C 5.273438 27.628906 5.3125 27.582031 5.367188 27.558594 C 5.441406 27.53125 5.519531 27.496094 5.59375 27.460938 C 5.644531 27.433594 5.703125 27.4375 5.75 27.46875 L 6.125 27.71875 C 6.195312 27.765625 6.28125 27.785156 6.363281 27.773438 C 6.449219 27.765625 6.527344 27.722656 6.585938 27.660156 L 6.9375 27.28125 C 7 27.21875 7.035156 27.132812 7.046875 27.042969 C 7.054688 26.953125 7.035156 26.863281 6.992188 26.785156 L 6.859375 26.558594 L 8.375 26.558594 C 8.410156 26.632812 8.480469 26.679688 8.5625 26.679688 C 8.683594 26.679688 8.78125 26.578125 8.78125 26.449219 C 8.78125 26.320312 8.683594 26.214844 8.5625 26.214844 C 8.480469 26.214844 8.410156 26.265625 8.375 26.335938 L 6.667969 26.335938 C 6.609375 26.335938 6.5625 26.386719 6.5625 26.449219 C 6.5625 26.480469 6.574219 26.507812 6.597656 26.53125 L 6.8125 26.90625 C 6.855469 26.976562 6.84375 27.066406 6.789062 27.121094 L 6.4375 27.5 C 6.382812 27.558594 6.300781 27.570312 6.234375 27.527344 L 5.863281 27.277344 C 5.753906 27.207031 5.617188 27.199219 5.503906 27.257812 C 5.4375 27.289062 5.367188 27.320312 5.296875 27.347656 C 5.175781 27.394531 5.085938 27.503906 5.054688 27.636719 L 4.957031 28.09375 C 4.941406 28.171875 4.875 28.230469 4.796875 28.230469 L 4.296875 28.230469 C 4.21875 28.230469 4.15625 28.171875 4.136719 28.09375 L 4.039062 27.636719 C 4.007812 27.503906 3.917969 27.394531 3.796875 27.347656 C 3.726562 27.320312 3.660156 27.289062 3.589844 27.257812 C 3.476562 27.199219 3.339844 27.207031 3.230469 27.277344 L 2.859375 27.527344 C 2.792969 27.570312 2.710938 27.558594 2.65625 27.5 L 2.304688 27.121094 C 2.25 27.066406 2.238281 26.976562 2.28125 26.90625 L 2.511719 26.503906 C 2.578125 26.390625 2.585938 26.246094 2.53125 26.121094 C 2.5 26.050781 2.472656 25.972656 2.445312 25.898438 C 2.402344 25.769531 2.300781 25.671875 2.179688 25.644531 L 1.75 25.535156 C 1.675781 25.515625 1.625 25.445312 1.625 25.363281 L 1.625 25.210938 L 1.65625 25.210938 L 1.625 25.070312 C 1.625 25.066406 1.625 25.066406 1.625 25.0625 L 1.625 24.808594 C 1.625 24.738281 1.644531 24.671875 1.683594 24.617188 C 1.726562 24.5625 1.78125 24.527344 1.84375 24.511719 L 2.25 24.410156 C 2.328125 24.390625 2.390625 24.328125 2.417969 24.25 C 2.441406 24.171875 2.472656 24.097656 2.503906 24.023438 C 2.539062 23.945312 2.535156 23.859375 2.492188 23.785156 L 2.269531 23.402344 C 2.238281 23.34375 2.222656 23.277344 2.230469 23.207031 C 2.238281 23.140625 2.265625 23.078125 2.3125 23.027344 L 2.648438 22.667969 C 2.695312 22.617188 2.753906 22.585938 2.816406 22.578125 C 2.878906 22.570312 2.945312 22.585938 3 22.621094 L 3.355469 22.859375 C 3.421875 22.90625 3.507812 22.910156 3.578125 22.875 C 3.644531 22.839844 3.71875 22.808594 3.789062 22.78125 C 3.863281 22.75 3.917969 22.683594 3.9375 22.601562 L 4.03125 22.164062 C 4.046875 22.097656 4.082031 22.039062 4.132812 21.996094 C 4.183594 21.953125 4.246094 21.929688 4.308594 21.929688 L 4.785156 21.929688 C 4.847656 21.929688 4.910156 21.953125 4.960938 21.996094 C 5.011719 22.039062 5.046875 22.097656 5.0625 22.164062 L 5.15625 22.601562 C 5.175781 22.683594 5.230469 22.75 5.304688 22.777344 C 5.316406 22.785156 5.328125 22.785156 5.339844 22.785156 L 8.5 22.785156 C 8.539062 22.859375 8.609375 22.90625 8.691406 22.90625 Z M 3.039062 25.148438 C 3.039062 26.039062 3.714844 26.761719 4.546875 26.761719 C 5.378906 26.761719 6.054688 26.039062 6.054688 25.148438 C 6.054688 25.085938 6.101562 25.035156 6.160156 25.035156 L 8.042969 25.035156 C 8.078125 24.964844 8.148438 24.914062 8.230469 24.914062 C 8.351562 24.914062 8.449219 25.019531 8.449219 25.148438 C 8.449219 25.273438 8.351562 25.378906 8.230469 25.378906 C 8.148438 25.378906 8.078125 25.332031 8.042969 25.257812 L 6.261719 25.257812 C 6.25 25.46875 6.207031 25.671875 6.128906 25.863281 C 6.042969 26.082031 5.917969 26.28125 5.761719 26.449219 C 5.605469 26.617188 5.421875 26.75 5.214844 26.84375 C 5.003906 26.941406 4.777344 26.988281 4.546875 26.988281 C 4.316406 26.988281 4.089844 26.941406 3.878906 26.84375 C 3.671875 26.75 3.488281 26.617188 3.332031 26.449219 C 3.175781 26.28125 3.050781 26.082031 2.964844 25.863281 C 2.875 25.636719 2.828125 25.394531 2.828125 25.148438 C 2.828125 24.898438 2.875 24.65625 2.964844 24.429688 C 3.050781 24.210938 3.175781 24.015625 3.332031 23.84375 C 3.488281 23.675781 3.671875 23.542969 3.878906 23.449219 C 4.089844 23.355469 4.316406 23.304688 4.546875 23.304688 C 4.78125 23.304688 5.011719 23.355469 5.226562 23.453125 C 5.414062 23.542969 5.585938 23.664062 5.738281 23.820312 L 7.398438 23.820312 C 7.433594 23.746094 7.503906 23.699219 7.585938 23.699219 C 7.707031 23.699219 7.804688 23.804688 7.804688 23.929688 C 7.804688 24.058594 7.707031 24.164062 7.585938 24.164062 C 7.503906 24.164062 7.433594 24.117188 7.398438 24.042969 L 5.691406 24.042969 C 5.65625 24.042969 5.625 24.027344 5.609375 23.996094 C 5.324219 23.695312 4.949219 23.53125 4.546875 23.53125 C 3.714844 23.53125 3.039062 24.253906 3.039062 25.148438 " fill-opacity="1" fill-rule="nonzero"/></g><g clip-path="url(#79a572f354)"><path fill="#ffffff" d="M 9.757812 34.859375 L 9.757812 30.65625 C 9.757812 21.539062 17.179688 14.125 26.300781 14.125 C 35.421875 14.125 42.84375 21.539062 42.84375 30.65625 L 42.84375 34.859375 L 52.078125 34.859375 L 53.300781 33.425781 L 53.300781 27.882812 L 52.078125 26.449219 L 48.230469 25.832031 C 47.917969 24.40625 47.464844 23.015625 46.878906 21.675781 L 49.628906 18.917969 L 49.777344 17.039062 L 46.515625 12.554688 L 44.683594 12.113281 L 41.203125 13.875 C 40.109375 12.90625 38.925781 12.046875 37.667969 11.304688 L 38.269531 7.457031 L 37.28125 5.851562 L 32.007812 4.140625 L 30.265625 4.859375 L 28.488281 8.328125 C 27.761719 8.257812 27.027344 8.222656 26.300781 8.222656 C 25.574219 8.222656 24.839844 8.257812 24.117188 8.328125 L 22.335938 4.859375 L 20.59375 4.140625 L 15.320312 5.851562 L 14.332031 7.457031 L 14.933594 11.304688 C 13.675781 12.046875 12.492188 12.90625 11.398438 13.875 L 7.917969 12.113281 L 6.085938 12.554688 L 2.828125 17.039062 L 2.972656 18.917969 L 5.722656 21.675781 C 5.136719 23.011719 4.683594 24.40625 4.371094 25.832031 L 0.523438 26.449219 L -0.699219 27.882812 L -0.699219 33.425781 L 0.523438 34.859375 L 9.757812 34.859375 " fill-opacity="1" fill-rule="nonzero"/></g><g clip-path="url(#34c482738f)"><path fill="#ffffff" d="M 9.757812 15.214844 L 9.757812 19.417969 C 9.757812 28.535156 17.179688 35.949219 26.300781 35.949219 C 35.421875 35.949219 42.84375 28.535156 42.84375 19.417969 L 42.84375 15.214844 L 52.078125 15.214844 L 53.300781 16.648438 L 53.300781 22.191406 L 52.078125 23.625 L 48.230469 24.242188 C 47.917969 25.667969 47.464844 27.0625 46.878906 28.398438 L 49.628906 31.15625 L 49.777344 33.035156 L 46.515625 37.519531 L 44.683594 37.960938 L 41.203125 36.199219 C 40.109375 37.167969 38.925781 38.03125 37.667969 38.769531 L 38.269531 42.617188 L 37.28125 44.222656 L 32.007812 45.933594 L 30.265625 45.214844 L 28.488281 41.746094 C 27.761719 41.816406 27.027344 41.851562 26.300781 41.851562 C 25.574219 41.851562 24.839844 41.816406 24.117188 41.746094 L 22.335938 45.214844 L 20.59375 45.933594 L 15.320312 44.222656 L 14.332031 42.617188 L 14.933594 38.769531 C 13.675781 38.03125 12.492188 37.167969 11.398438 36.199219 L 7.917969 37.960938 L 6.085938 37.519531 L 2.828125 33.035156 L 2.972656 31.15625 L 5.722656 28.398438 C 5.136719 27.0625 4.683594 25.667969 4.371094 24.242188 L 0.523438 23.625 L -0.699219 22.191406 L -0.699219 16.648438 L 0.523438 15.214844 L 9.757812 15.214844 " fill-opacity="1" fill-rule="nonzero"/></g></svg>